<mxfile host="app.diagrams.net" modified="2023-12-21T08:51:05.158Z" agent="Mozilla/5.0 (Windows NT 10.0; Win64; x64) AppleWebKit/537.36 (KHTML, like Gecko) Chrome/120.0.0.0 Safari/537.36" etag="vjKObPz1LYNDFTgf4KU3" version="22.1.11" type="device">
  <diagram name="第 1 页" id="VMzvTUoIbbSJ1ndubA9M">
    <mxGraphModel dx="1143" dy="607" grid="0" gridSize="10" guides="1" tooltips="1" connect="1" arrows="1" fold="1" page="1" pageScale="1" pageWidth="827" pageHeight="1169" math="0" shadow="0">
      <root>
        <mxCell id="0" />
        <mxCell id="1" parent="0" />
        <mxCell id="w7ZeJscN01RE4dLkFGF4-1" value="&lt;font style=&quot;font-size: 30px;&quot;&gt;4.2動態模型設計&lt;/font&gt;" style="text;html=1;strokeColor=none;fillColor=none;align=center;verticalAlign=middle;whiteSpace=wrap;rounded=0;" vertex="1" parent="1">
          <mxGeometry x="253" y="9" width="266" height="67" as="geometry" />
        </mxCell>
        <mxCell id="w7ZeJscN01RE4dLkFGF4-2" value="&lt;font style=&quot;font-size: 22px;&quot;&gt;1.購物車活動建模&lt;/font&gt;" style="text;html=1;strokeColor=none;fillColor=none;align=center;verticalAlign=middle;whiteSpace=wrap;rounded=0;" vertex="1" parent="1">
          <mxGeometry x="29" y="93" width="263" height="30" as="geometry" />
        </mxCell>
        <mxCell id="w7ZeJscN01RE4dLkFGF4-3" value="&lt;font style=&quot;font-size: 18px;&quot;&gt;1.顧客先登錄到購物車界面&lt;/font&gt;" style="text;html=1;strokeColor=none;fillColor=none;align=left;verticalAlign=middle;whiteSpace=wrap;rounded=0;" vertex="1" parent="1">
          <mxGeometry x="73" y="123" width="221" height="30" as="geometry" />
        </mxCell>
        <mxCell id="w7ZeJscN01RE4dLkFGF4-4" value="&lt;font style=&quot;font-size: 18px;&quot;&gt;2.顧客選擇要執行的操作&lt;/font&gt;" style="text;html=1;strokeColor=none;fillColor=none;align=left;verticalAlign=middle;whiteSpace=wrap;rounded=0;" vertex="1" parent="1">
          <mxGeometry x="73" y="153" width="221" height="30" as="geometry" />
        </mxCell>
        <mxCell id="w7ZeJscN01RE4dLkFGF4-5" value="&lt;font style=&quot;font-size: 18px;&quot;&gt;3.購買商品&lt;/font&gt;" style="text;html=1;strokeColor=none;fillColor=none;align=left;verticalAlign=middle;whiteSpace=wrap;rounded=0;" vertex="1" parent="1">
          <mxGeometry x="73" y="179" width="221" height="36" as="geometry" />
        </mxCell>
        <mxCell id="w7ZeJscN01RE4dLkFGF4-6" value="&lt;span style=&quot;font-size: 18px;&quot;&gt;4.結束進程&lt;/span&gt;" style="text;html=1;strokeColor=none;fillColor=none;align=left;verticalAlign=middle;whiteSpace=wrap;rounded=0;" vertex="1" parent="1">
          <mxGeometry x="73" y="211" width="221" height="30" as="geometry" />
        </mxCell>
        <mxCell id="w7ZeJscN01RE4dLkFGF4-7" value="" style="ellipse;whiteSpace=wrap;html=1;aspect=fixed;fillColor=#000000;" vertex="1" parent="1">
          <mxGeometry x="383" y="249" width="38" height="38" as="geometry" />
        </mxCell>
        <mxCell id="w7ZeJscN01RE4dLkFGF4-8" value="&lt;font style=&quot;font-size: 18px;&quot;&gt;用戶登陸&lt;/font&gt;" style="rounded=1;whiteSpace=wrap;html=1;" vertex="1" parent="1">
          <mxGeometry x="347" y="327" width="110" height="33" as="geometry" />
        </mxCell>
        <mxCell id="w7ZeJscN01RE4dLkFGF4-9" value="&lt;font style=&quot;font-size: 18px;&quot;&gt;帳號密碼&lt;/font&gt;" style="rounded=1;whiteSpace=wrap;html=1;" vertex="1" parent="1">
          <mxGeometry x="347" y="395" width="110" height="33" as="geometry" />
        </mxCell>
        <mxCell id="w7ZeJscN01RE4dLkFGF4-11" value="" style="rhombus;whiteSpace=wrap;html=1;" vertex="1" parent="1">
          <mxGeometry x="362" y="466" width="80" height="80" as="geometry" />
        </mxCell>
        <mxCell id="w7ZeJscN01RE4dLkFGF4-12" value="&lt;font style=&quot;font-size: 18px;&quot;&gt;購物車頁面&lt;/font&gt;" style="rounded=1;whiteSpace=wrap;html=1;" vertex="1" parent="1">
          <mxGeometry x="309.5" y="571" width="185" height="33" as="geometry" />
        </mxCell>
        <mxCell id="w7ZeJscN01RE4dLkFGF4-14" value="" style="html=1;points=[[0,0,0,0,5],[0,1,0,0,-5],[1,0,0,0,5],[1,1,0,0,-5]];perimeter=orthogonalPerimeter;outlineConnect=0;targetShapes=umlLifeline;portConstraint=eastwest;newEdgeStyle={&quot;curved&quot;:0,&quot;rounded&quot;:0};fillColor=#000000;direction=south;" vertex="1" parent="1">
          <mxGeometry x="287.5" y="643" width="229" height="10" as="geometry" />
        </mxCell>
        <mxCell id="w7ZeJscN01RE4dLkFGF4-15" value="&lt;font style=&quot;font-size: 18px;&quot;&gt;瀏覽購物車商品&lt;/font&gt;" style="rounded=1;whiteSpace=wrap;html=1;" vertex="1" parent="1">
          <mxGeometry x="137.5" y="748" width="150" height="33" as="geometry" />
        </mxCell>
        <mxCell id="w7ZeJscN01RE4dLkFGF4-16" value="&lt;font style=&quot;font-size: 18px;&quot;&gt;修改購物車商品&lt;/font&gt;" style="rounded=1;whiteSpace=wrap;html=1;" vertex="1" parent="1">
          <mxGeometry x="327" y="748" width="150" height="33" as="geometry" />
        </mxCell>
        <mxCell id="w7ZeJscN01RE4dLkFGF4-17" value="&lt;font style=&quot;font-size: 18px;&quot;&gt;添加購物車商品&lt;/font&gt;" style="rounded=1;whiteSpace=wrap;html=1;" vertex="1" parent="1">
          <mxGeometry x="516.5" y="748" width="150" height="33" as="geometry" />
        </mxCell>
        <mxCell id="w7ZeJscN01RE4dLkFGF4-18" value="" style="html=1;points=[[0,0,0,0,5],[0,1,0,0,-5],[1,0,0,0,5],[1,1,0,0,-5]];perimeter=orthogonalPerimeter;outlineConnect=0;targetShapes=umlLifeline;portConstraint=eastwest;newEdgeStyle={&quot;curved&quot;:0,&quot;rounded&quot;:0};fillColor=#000000;direction=south;" vertex="1" parent="1">
          <mxGeometry x="287.5" y="880" width="229" height="10" as="geometry" />
        </mxCell>
        <mxCell id="w7ZeJscN01RE4dLkFGF4-19" value="&lt;font style=&quot;font-size: 18px;&quot;&gt;購買商品&lt;/font&gt;" style="strokeWidth=2;html=1;shape=mxgraph.flowchart.terminator;whiteSpace=wrap;" vertex="1" parent="1">
          <mxGeometry x="304" y="929" width="196" height="32" as="geometry" />
        </mxCell>
        <mxCell id="w7ZeJscN01RE4dLkFGF4-20" value="" style="ellipse;html=1;shape=endState;fillColor=#000000;strokeColor=#ff0000;" vertex="1" parent="1">
          <mxGeometry x="387" y="995" width="30" height="30" as="geometry" />
        </mxCell>
        <mxCell id="w7ZeJscN01RE4dLkFGF4-21" value="" style="html=1;verticalAlign=bottom;endArrow=block;curved=0;rounded=0;exitX=0.5;exitY=1;exitDx=0;exitDy=0;" edge="1" parent="1" source="w7ZeJscN01RE4dLkFGF4-16">
          <mxGeometry width="80" relative="1" as="geometry">
            <mxPoint x="371" y="769" as="sourcePoint" />
            <mxPoint x="404" y="877" as="targetPoint" />
          </mxGeometry>
        </mxCell>
        <mxCell id="w7ZeJscN01RE4dLkFGF4-22" value="" style="html=1;verticalAlign=bottom;endArrow=block;curved=0;rounded=0;exitX=0.5;exitY=1;exitDx=0;exitDy=0;" edge="1" parent="1" source="w7ZeJscN01RE4dLkFGF4-15">
          <mxGeometry width="80" relative="1" as="geometry">
            <mxPoint x="412" y="791" as="sourcePoint" />
            <mxPoint x="340" y="877" as="targetPoint" />
          </mxGeometry>
        </mxCell>
        <mxCell id="w7ZeJscN01RE4dLkFGF4-23" value="" style="html=1;verticalAlign=bottom;endArrow=block;curved=0;rounded=0;exitX=0.5;exitY=1;exitDx=0;exitDy=0;" edge="1" parent="1" source="w7ZeJscN01RE4dLkFGF4-17">
          <mxGeometry width="80" relative="1" as="geometry">
            <mxPoint x="422" y="801" as="sourcePoint" />
            <mxPoint x="453" y="877" as="targetPoint" />
          </mxGeometry>
        </mxCell>
        <mxCell id="w7ZeJscN01RE4dLkFGF4-24" value="" style="html=1;verticalAlign=bottom;endArrow=block;curved=0;rounded=0;exitX=1.1;exitY=0.5;exitDx=0;exitDy=0;exitPerimeter=0;entryX=0.5;entryY=0;entryDx=0;entryDy=0;entryPerimeter=0;" edge="1" parent="1" source="w7ZeJscN01RE4dLkFGF4-18" target="w7ZeJscN01RE4dLkFGF4-19">
          <mxGeometry width="80" relative="1" as="geometry">
            <mxPoint x="537" y="920" as="sourcePoint" />
            <mxPoint x="539" y="1016" as="targetPoint" />
          </mxGeometry>
        </mxCell>
        <mxCell id="w7ZeJscN01RE4dLkFGF4-25" value="" style="html=1;verticalAlign=bottom;endArrow=block;curved=0;rounded=0;exitX=0.5;exitY=1;exitDx=0;exitDy=0;exitPerimeter=0;entryX=0.5;entryY=0;entryDx=0;entryDy=0;" edge="1" parent="1" source="w7ZeJscN01RE4dLkFGF4-19" target="w7ZeJscN01RE4dLkFGF4-20">
          <mxGeometry width="80" relative="1" as="geometry">
            <mxPoint x="442" y="821" as="sourcePoint" />
            <mxPoint x="444" y="917" as="targetPoint" />
          </mxGeometry>
        </mxCell>
        <mxCell id="w7ZeJscN01RE4dLkFGF4-26" value="" style="html=1;verticalAlign=bottom;endArrow=block;curved=0;rounded=0;exitX=1;exitY=0.81;exitDx=0;exitDy=0;exitPerimeter=0;entryX=0.5;entryY=0;entryDx=0;entryDy=0;" edge="1" parent="1" source="w7ZeJscN01RE4dLkFGF4-14" target="w7ZeJscN01RE4dLkFGF4-15">
          <mxGeometry width="80" relative="1" as="geometry">
            <mxPoint x="452" y="831" as="sourcePoint" />
            <mxPoint x="454" y="927" as="targetPoint" />
          </mxGeometry>
        </mxCell>
        <mxCell id="w7ZeJscN01RE4dLkFGF4-27" value="" style="html=1;verticalAlign=bottom;endArrow=block;curved=0;rounded=0;entryX=0.5;entryY=0;entryDx=0;entryDy=0;" edge="1" parent="1" source="w7ZeJscN01RE4dLkFGF4-14" target="w7ZeJscN01RE4dLkFGF4-17">
          <mxGeometry width="80" relative="1" as="geometry">
            <mxPoint x="462" y="841" as="sourcePoint" />
            <mxPoint x="464" y="937" as="targetPoint" />
          </mxGeometry>
        </mxCell>
        <mxCell id="w7ZeJscN01RE4dLkFGF4-28" value="" style="html=1;verticalAlign=bottom;endArrow=block;curved=0;rounded=0;entryX=0.5;entryY=0;entryDx=0;entryDy=0;" edge="1" parent="1" target="w7ZeJscN01RE4dLkFGF4-16">
          <mxGeometry width="80" relative="1" as="geometry">
            <mxPoint x="396" y="653" as="sourcePoint" />
            <mxPoint x="402" y="742" as="targetPoint" />
          </mxGeometry>
        </mxCell>
        <mxCell id="w7ZeJscN01RE4dLkFGF4-29" value="" style="html=1;verticalAlign=bottom;endArrow=block;curved=0;rounded=0;exitX=0.5;exitY=1;exitDx=0;exitDy=0;" edge="1" parent="1" source="w7ZeJscN01RE4dLkFGF4-12" target="w7ZeJscN01RE4dLkFGF4-14">
          <mxGeometry width="80" relative="1" as="geometry">
            <mxPoint x="406" y="663" as="sourcePoint" />
            <mxPoint x="412" y="758" as="targetPoint" />
          </mxGeometry>
        </mxCell>
        <mxCell id="w7ZeJscN01RE4dLkFGF4-31" value="" style="html=1;verticalAlign=bottom;endArrow=block;curved=0;rounded=0;entryX=0.5;entryY=0;entryDx=0;entryDy=0;exitX=0.5;exitY=1;exitDx=0;exitDy=0;" edge="1" parent="1" source="w7ZeJscN01RE4dLkFGF4-11" target="w7ZeJscN01RE4dLkFGF4-12">
          <mxGeometry width="80" relative="1" as="geometry">
            <mxPoint x="416" y="673" as="sourcePoint" />
            <mxPoint x="422" y="768" as="targetPoint" />
          </mxGeometry>
        </mxCell>
        <mxCell id="w7ZeJscN01RE4dLkFGF4-32" value="成功" style="edgeLabel;html=1;align=center;verticalAlign=middle;resizable=0;points=[];" vertex="1" connectable="0" parent="w7ZeJscN01RE4dLkFGF4-31">
          <mxGeometry x="-0.4232" y="-2" relative="1" as="geometry">
            <mxPoint as="offset" />
          </mxGeometry>
        </mxCell>
        <mxCell id="w7ZeJscN01RE4dLkFGF4-33" value="" style="html=1;verticalAlign=bottom;endArrow=block;curved=0;rounded=0;exitX=1;exitY=0.5;exitDx=0;exitDy=0;entryX=1;entryY=0.5;entryDx=0;entryDy=0;" edge="1" parent="1" source="w7ZeJscN01RE4dLkFGF4-11" target="w7ZeJscN01RE4dLkFGF4-9">
          <mxGeometry width="80" relative="1" as="geometry">
            <mxPoint x="426" y="683" as="sourcePoint" />
            <mxPoint x="523" y="406" as="targetPoint" />
            <Array as="points">
              <mxPoint x="525" y="505" />
              <mxPoint x="525" y="412" />
            </Array>
          </mxGeometry>
        </mxCell>
        <mxCell id="w7ZeJscN01RE4dLkFGF4-34" value="失敗" style="edgeLabel;html=1;align=center;verticalAlign=middle;resizable=0;points=[];" vertex="1" connectable="0" parent="w7ZeJscN01RE4dLkFGF4-33">
          <mxGeometry x="0.0365" y="-2" relative="1" as="geometry">
            <mxPoint as="offset" />
          </mxGeometry>
        </mxCell>
        <mxCell id="w7ZeJscN01RE4dLkFGF4-35" value="" style="html=1;verticalAlign=bottom;endArrow=block;curved=0;rounded=0;entryX=0.5;entryY=0;entryDx=0;entryDy=0;exitX=0.5;exitY=1;exitDx=0;exitDy=0;" edge="1" parent="1" source="w7ZeJscN01RE4dLkFGF4-9" target="w7ZeJscN01RE4dLkFGF4-11">
          <mxGeometry width="80" relative="1" as="geometry">
            <mxPoint x="436" y="693" as="sourcePoint" />
            <mxPoint x="442" y="788" as="targetPoint" />
          </mxGeometry>
        </mxCell>
        <mxCell id="w7ZeJscN01RE4dLkFGF4-36" value="" style="html=1;verticalAlign=bottom;endArrow=block;curved=0;rounded=0;entryX=0.5;entryY=0;entryDx=0;entryDy=0;" edge="1" parent="1" target="w7ZeJscN01RE4dLkFGF4-9">
          <mxGeometry width="80" relative="1" as="geometry">
            <mxPoint x="402" y="360" as="sourcePoint" />
            <mxPoint x="481" y="537" as="targetPoint" />
          </mxGeometry>
        </mxCell>
        <mxCell id="w7ZeJscN01RE4dLkFGF4-37" value="" style="html=1;verticalAlign=bottom;endArrow=block;curved=0;rounded=0;entryX=0.5;entryY=0;entryDx=0;entryDy=0;exitX=0.5;exitY=1;exitDx=0;exitDy=0;" edge="1" parent="1" source="w7ZeJscN01RE4dLkFGF4-7" target="w7ZeJscN01RE4dLkFGF4-8">
          <mxGeometry width="80" relative="1" as="geometry">
            <mxPoint x="412" y="370" as="sourcePoint" />
            <mxPoint x="412" y="405" as="targetPoint" />
          </mxGeometry>
        </mxCell>
      </root>
    </mxGraphModel>
  </diagram>
</mxfile>
